<?xml version="1.0" encoding="UTF-8" standalone="no"?><!DOCTYPE svg PUBLIC "-//W3C//DTD SVG 1.1//EN" "http://www.w3.org/Graphics/SVG/1.1/DTD/svg11.dtd"><svg width="100%" height="100%" viewBox="0 0 377 377" version="1.1" xmlns="http://www.w3.org/2000/svg" xmlns:xlink="http://www.w3.org/1999/xlink" xml:space="preserve" xmlns:serif="http://www.serif.com/" style="fill-rule:evenodd;clip-rule:evenodd;stroke-linejoin:round;stroke-miterlimit:2;"><g id="cafe"><path d="M255.689,315.877c-0.135,0.116 -5.764,4.435 -3.479,4.406c5.482,-0.071 63.979,-0.83 68.532,0.381c13.088,3.48 2.149,41.404 -24.151,51.614c-11.214,4.353 -11.552,3.809 -80.885,3.809c-171.379,0 -171.406,0.11 -176.327,-0.869c-35.879,-7.14 -45.624,-48.725 -35.292,-53.959c4.576,-2.318 52.93,0.076 53.029,-1.303c0.262,-3.643 -28.113,-15.981 -48.009,-68.271c-12.1,-31.8 -8.467,-65.425 -8.961,-113.193c-0.118,-11.36 5.115,-9.7 34.865,-9.7c29.861,0 35.342,-1.249 36.222,6.732c0.861,7.816 -7.392,7.942 -8.312,7.957c-9.481,0.145 -46.843,-0.322 -47.628,0.295c-0.514,0.404 -1.223,56.021 0.446,71.862c7.118,67.528 63.909,104.533 69.202,104.616c3.385,0.053 133.889,-0.062 138.109,0.06c4.19,0.121 58.713,-31.524 69.257,-99.516c2.641,-17.03 1.318,-39.819 1.601,-74.225c0.036,-4.32 -1.929,-3.085 -6.218,-3.085c-146.397,-0.008 -146.558,0.146 -148.254,-0.816c-6.301,-3.574 -5.832,-13.805 5.021,-13.877c72.626,-0.488 141.912,-0.074 154.252,-0c15.947,0.095 7.863,17.271 10.107,22.288c0.844,1.887 59.372,-0.766 63.27,1.51c4.802,2.804 4.091,4.067 4.091,38.054c0,16.792 4.973,54.712 -31.412,79.732c-26.442,18.182 -57.621,9.324 -60.661,12.891c-0.261,0.307 -12.58,19.568 -28.415,32.612l-234.266,31.681c13.164,15.79 18.079,13.837 68.679,13.837c191.177,-0 191.224,0.121 195.418,-0.962c21.273,-5.49 25.675,-24.843 24.342,-25.333c-0.694,-0.255 -282.759,0.031 -291.742,-0.149c-2.634,-0.053 -2.447,1.465 -0.723,5.529c1.464,3.45 3.65,6.545 4.026,7.077l234.266,-31.681l85.18,-60.969c14.898,-13.141 20.617,-25.919 20.617,-46.637c0,-40.94 0.172,-41.605 -1.083,-41.833c-1.88,-0.342 -45.947,-0.058 -49.942,-0.033c-1.367,0.009 -1.92,0.384 -1.862,2.203c0.346,10.769 -1.143,12.414 1.862,12.482c26.015,0.589 36.465,-3.604 36.334,9.551c-0.184,18.488 1.623,29.582 -5.652,41.767c-13.826,23.157 -38.444,20.502 -40.234,20.524c-2.416,0.031 -1.745,1.148 -6.226,11.003c-0.449,0.988 -3.075,3.702 1.088,3.683c19.375,-0.091 28.001,0.088 45.098,-12.711l-85.18,60.969l68.287,-85.256c6.186,-6.317 8.829,-10.823 8.118,-33.413c-0.004,-0.14 -0.038,-1.201 -1.072,-1.389c-0.294,-0.054 -20.996,-0.053 -21.289,-0c-4.085,0.744 2.644,3.877 -5.532,40.43c-0.04,0.177 -0.458,2.047 1.126,1.962c9.869,-0.527 13.717,-3.295 18.648,-7.591l-68.287,85.256Z" style="fill:#005487;fill-opacity:1;"/><path d="M107.37,100.01c14.814,-19.392 4.204,-30.059 -2.285,-38.851c-10.071,-13.643 -8.325,-28.997 -1.486,-39.275c0.557,-0.837 5.894,-8.858 12.025,-3.628c9.13,7.788 -8.606,13.868 -1.014,30.499c2.126,4.658 30.902,30.815 1.87,63.231c-3.452,3.854 -9.765,2.599 -11.77,-1.361c-2.682,-5.298 1.546,-9.206 2.66,-10.615Z" style="fill:#005487;fill-opacity:1;"/><path d="M199.894,54.478c7.903,10.359 11.958,17.177 10.42,33.302c-0.905,9.487 -8.575,19.403 -9.701,20.859c-0.292,0.377 -3.41,5.869 -8.416,5.757c-4.86,-0.108 -9.812,-6.339 -4.953,-12.492c3.467,-4.39 15.727,-17.46 3.789,-34.869c-4.276,-6.236 -18.529,-19.515 -7.675,-42.411c6.948,-14.656 21.441,-6.594 14.32,4.64c-8.01,12.637 -0.628,21.44 2.214,25.213Z" style="fill:#005487;fill-opacity:1;"/><path d="M147.049,46.216c-4.019,-5.12 -4.937,-7.631 -5.972,-9.952c-7.75,-17.376 5.546,-43.912 15.651,-34.178c8.152,7.852 -9.51,14.662 -0.905,31.169c1.747,3.351 29.125,28.83 3.077,60.234c-0.686,0.827 -7.865,9.483 -13.417,0.753c-2.585,-4.065 1.788,-9.704 2.309,-10.376c11.884,-15.325 8.922,-25.459 -0.743,-37.65Z" style="fill:#005487;fill-opacity:1;"/><path d="M245.452,276.174c-1.397,1.567 -10.078,14.499 -17.002,7.492c-8.365,-8.466 6.888,-11.413 19.94,-39.235c16.703,-35.607 4.365,-50.995 17.244,-51.842c1.969,-0.13 7.816,1.104 7.676,8.347c-0.15,7.762 -0.802,42.842 -27.858,75.238Z" style="fill:#005487;fill-opacity:1;"/><path d="M213.95,302.675c-14.164,7.142 -15.028,-13.633 -4.11,-13.036c4.573,0.25 10.893,6.393 4.11,13.036Z" style="fill:#005487;fill-opacity:1;"/><path d="M99.998,141.119c-5.8,-8.885 2.857,-12.279 5.528,-12.166c11.942,0.506 6.929,21.33 -5.528,12.166Z" style="fill:#005487;fill-opacity:1;"/></g></svg>