<?xml version="1.0" encoding="UTF-8" standalone="no"?><!DOCTYPE svg PUBLIC "-//W3C//DTD SVG 1.1//EN" "http://www.w3.org/Graphics/SVG/1.1/DTD/svg11.dtd"><svg width="100%" height="100%" viewBox="0 0 371 335" version="1.1" xmlns="http://www.w3.org/2000/svg" xmlns:xlink="http://www.w3.org/1999/xlink" xml:space="preserve" xmlns:serif="http://www.serif.com/" style="fill-rule:evenodd;clip-rule:evenodd;stroke-linejoin:round;stroke-miterlimit:2;"><g id="design"><path d="M17.89,0.11c22.768,0.079 214.617,-0.004 216.823,0.04c7.36,0.147 7.156,8.893 2.36,10.624c-2.394,0.864 -163.481,0.217 -215.255,0.406c-4.34,0.016 -8.747,2.334 -9.881,6.004c-0.839,2.716 -0.729,2.778 -0.732,141.8c-0.001,43.64 -0.186,44.281 1.193,44.68c1.594,0.461 128.352,0.064 139.513,0.029c3.012,-0.009 1.874,-2.96 2.039,-25.792c0.055,-7.553 3.505,-7.8 4.921,-9.565c0.88,-1.096 -3.035,-12.693 -8.795,-24.205c-3.644,-7.282 1.036,-6.933 15.559,-29.841c15.314,-24.155 12.506,-26.9 17.823,-28.613c7.294,-2.351 6.238,3.634 17.808,22.302c1.297,2.093 12.174,19.643 17.219,25.507c7.598,8.831 0.632,9.859 -6.31,31.914c-1.008,3.202 0.627,2.831 2.583,5.554c4.598,6.397 0.724,28.856 2.499,32.267c0.32,0.615 0.622,0.465 125.459,0.484c14.942,0.002 17.063,0.68 16.978,-2.147c-0.066,-2.196 -0.053,-2.19 -0.054,-137.185c-0,-46.686 0.594,-47.616 -3.598,-51.153c-5.087,-4.292 -44.203,-1.015 -49.644,-2.258c-5.131,-1.173 -3.502,-6.746 -3.321,-7.367c1.197,-4.095 2.754,-3.452 35.697,-3.452c11.783,0 26.161,-2.594 31.519,14.566c0.438,1.401 0.385,1.415 0.385,212.872c0,25.997 1.346,33.705 -6.719,40.146c-9.314,7.439 -10.867,3.71 -130.057,4.428c-1.113,0.007 -2.056,0.117 -2.008,1.948c0.186,7.174 -0.1,31.676 0.16,33.172c3.477,19.985 11.705,15.749 27.892,16.141c6.963,0.169 8.734,11.21 -1.593,11.024c-7.196,-0.129 -140.859,-0.015 -146.653,-0.057c-0.697,-0.005 -6.973,-0.05 -6.413,-5.894c0.628,-6.56 8.076,-5.096 22.19,-5.143c1.235,-0.004 6.715,-0.022 10.498,-11.314c0.965,-2.879 1.163,-3.472 0.922,-37.946c-0.021,-2.941 -1.8,-1.821 -39.021,-1.989c-9.982,-0.045 -6.596,-8.661 -4.467,-10.297c1.083,-0.832 1.253,-0.74 224.444,-0.74c32.505,-0 39.874,1.979 39.789,-11.405c-0.211,-33.047 0.757,-34.171 -1.195,-34.392c-0.58,-0.066 -316.221,-0.013 -343.719,-0.008c-2.808,0 -3.541,0.028 -3.521,2.862c0.226,32.043 -1.526,37.176 4.163,41.234c4.915,3.505 41.643,1.026 55.377,1.831c3.609,0.212 5.837,5.208 2.805,9.488c-1.211,1.71 -1.722,1.428 -38.324,1.428c-16.412,-0 -29.103,2.486 -34.681,-14.563c-0.446,-1.363 -0.374,-1.386 -0.378,-227.066c-0,-7.823 -3.131,-27.806 17.723,-30.358l135.602,271.987c-1.948,0.224 -2.94,-0.75 -3.006,1.234c-0.555,16.818 2.009,39.017 -3.922,48.157c-1.228,1.892 0.339,1.864 0.494,1.861c5.875,-0.106 5.843,-0.005 73.451,-0.004c0.562,0 4.319,0.623 4.366,-1.048c0.049,-1.748 -4.475,-0.806 -4.476,-21.395c-0.001,-27.627 0.297,-28.505 -1.412,-28.735c-0.58,-0.078 -57.04,0.076 -65.495,-0.07l-135.602,-271.987l161.726,114.41c-0.054,0.02 -0.605,-0.566 -0.88,0.324c-0.449,1.452 -0.815,2.637 -9.758,16.296c-0.224,0.341 -0.317,0.173 -3.106,4.047c-3.199,4.444 -5.055,4.577 -2.636,9.469c7.624,15.418 5.547,21.823 9.968,21.891c25.969,0.4 26.8,0.031 27.313,-2.099c5.019,-20.83 11.5,-21.295 6.513,-26.688c-0.413,-0.446 -0.382,-0.457 -7.562,-10.471c-8.132,-11.34 -6.447,-12.577 -7.577,-12.991c-0.218,-0.08 -0.443,0.3 -0.662,0.22l-0.489,0.378c0.328,6.837 0.151,24.655 0.113,25.201c-0.307,4.358 -5.637,4.861 -8.165,3.857c-2.169,-0.862 -3.898,-1.548 -2.583,-29.057l-0.49,-0.377l-161.726,-114.41l181.331,178.046c-2.584,-0.006 -32.051,-0.079 -32.306,-0.057c-1.999,0.172 -1.379,5.742 -1.389,10.058c-0.032,13.032 -0.812,15.536 2.16,15.538c36.938,0.02 37.189,0.01 37.566,-0.679c0.2,-0.366 0.214,-23.769 -0.014,-24.186c-0.692,-1.266 -1.08,-0.589 -6.017,-0.672l-181.331,-178.046Z" style="fill:#005487;fill-opacity:1;"/><path d="M81.746,40.318c9.667,0.163 17.83,-0.012 22.083,0.061c9.053,0.154 3.989,11.033 7.119,11.908c0.104,0.029 55.454,0.019 55.92,0.007c2.265,-0.059 0.488,-8.218 2.703,-10.479c1.53,-1.562 1.897,-1.936 27.296,-1.432c9.148,0.182 3.896,11.817 7.113,11.914c0.424,0.013 55.032,0.023 55.921,-0.003c3.941,-0.115 -3.687,-12.207 8.704,-11.921c17.828,0.412 26.813,-2.691 27.02,6.651c0.524,23.599 0.025,24.183 -1.315,25.752c-3.212,3.76 -29.255,1.688 -29.518,1.561c-4.914,-2.375 -3.598,-8.027 -3.609,-8.386c-0.085,-2.863 -3.763,-2.08 -13.079,-2.08c-10.324,0 -18.364,-0.77 -12.104,1.624c4.316,1.651 9.543,6.362 10.284,7.029c0.566,0.51 4.791,4.318 7.182,6.258c11.13,9.029 25.434,32.82 28.67,51.795c0.663,3.888 2.242,2.251 6.18,2.288c9.303,0.088 7.303,10.367 7.303,11.926c-0.001,18.236 1.779,22.907 -8.88,22.968c-20.957,0.119 -25.443,0.82 -25.548,-6.405c-0.348,-23.928 -0.584,-24.109 0.648,-25.762c2.424,-3.253 8.019,-2.738 8.219,-2.859c1.63,-0.992 -4.294,-16.309 -5.914,-19.613c-10.932,-22.3 -24.29,-30.275 -27.131,-32.916c-5.41,-5.028 -26.861,-14.711 -33.054,-14.844c-3.29,-0.071 1.504,5.298 -4.608,8.739c-2.66,1.497 -26.826,0.519 -26.924,0.491c-5.097,-1.417 -4.284,-8.493 -4.303,-8.536c-0.788,-1.83 -19.056,2.755 -35.143,14.855c-26.734,20.108 -31.12,46.239 -32.336,49.683c-1.49,4.22 5.542,0.699 7.967,4.686c1.085,1.784 1.279,2.104 1.048,26.076c-0.075,7.73 -6.677,6.428 -20.819,6.428c-10.291,-0 -13.624,0.547 -13.628,-9.587c-0.006,-19.706 -0.791,-23.103 3.364,-24.472c6.581,-2.169 9.192,1.057 10.117,-3.148c1.696,-7.713 1.834,-7.633 4.497,-15.09c3.275,-9.171 3.867,-10.392 11.726,-22.487c1.952,-3.004 9.638,-11.893 11.229,-13.168c2.714,-2.174 7.752,-6.713 8.414,-7.31c6.413,-5.778 16.216,-9.008 11.574,-8.897c-23.319,0.559 -23.359,-0.152 -25.319,0.36c-2.445,0.638 -1.075,1.653 -1.199,5.933c-0.184,6.351 -12.206,4.907 -13.679,4.907c-16.283,0.005 -20.728,1.673 -20.728,-8.876c-0.001,-21.544 -1.266,-24.577 6.539,-25.629l193.953,104.095c-4.849,0.512 -2.982,2.625 -2.982,7.474c0,0.323 -0.578,4.212 1.341,4.301c9.511,0.44 9.701,-0.271 9.907,-1.041c0.093,-0.349 0.425,-9.662 -0.331,-10.413c-0.47,-0.467 -7.783,-0.32 -7.936,-0.321l-193.953,-104.095l8.67,104.096c-2.503,0.252 -3.59,-0.544 -3.638,1.958c-0.088,4.591 -0.369,9.715 1.196,9.805c9.903,0.574 10.093,-0.352 10.118,-1.167c0.025,-0.8 0.29,-9.19 -0.146,-10.005c-0.304,-0.569 -6.926,-0.59 -7.53,-0.592l-8.67,-104.096l192.3,22.863c2.383,0.035 9.439,0.818 9.923,-1.077c0.033,-0.129 0.454,-8.903 -0.254,-9.666c-0.861,-0.929 -10.339,-0.904 -10.912,0.197c-0.11,0.212 -0.177,9.492 0.082,9.977c0,0 1.068,0.524 1.161,0.57l-192.3,-22.863l99.257,22.856c1.386,0.022 9.898,0.873 10.068,-1.2c0.817,-10.008 -0.517,-10.041 -1.328,-10.061c-6.391,-0.158 -9.95,-0.311 -9.978,1.44c-0.008,0.497 0.004,8.542 0.011,8.621c0,0 1.129,1.104 1.227,1.2l-99.257,-22.856l15.055,22.859c0.897,-0.447 1.255,-0.191 1.291,-1.199c0.026,-0.746 0.3,-8.62 -0.071,-9.335c-0.565,-1.09 -10.023,-1.107 -10.88,-0.2c-0.715,0.758 -0.29,9.538 -0.259,9.659c0.483,1.892 7.572,1.109 9.92,1.074l-15.055,-22.859Z" style="fill:#005487;fill-opacity:1;"/><path d="M260.98,1.557c1.091,-1.027 1.942,-1.829 18.678,-1.4c5.748,0.147 6.66,6.565 3.665,9.551c-1.061,1.058 -1.847,1.842 -18.681,1.397c-5.989,-0.158 -6.169,-6.879 -3.662,-9.548Z" style="fill:#005487;fill-opacity:1;"/></g></svg>