<?xml version="1.0" encoding="UTF-8" standalone="no"?><!DOCTYPE svg PUBLIC "-//W3C//DTD SVG 1.1//EN" "http://www.w3.org/Graphics/SVG/1.1/DTD/svg11.dtd"><svg width="100%" height="100%" viewBox="0 0 428 368" version="1.1" xmlns="http://www.w3.org/2000/svg" xmlns:xlink="http://www.w3.org/1999/xlink" xml:space="preserve" xmlns:serif="http://www.serif.com/" style="fill-rule:evenodd;clip-rule:evenodd;stroke-linejoin:round;stroke-miterlimit:2;"><g id="estrela"><path d="M176.827,175.373c5.42,2.135 5.812,0.921 17.31,5.772c2.669,1.126 17.883,7.544 31.268,18.25c5.7,4.559 1.116,16.617 -9.509,8.548c-51.051,-38.774 -97.086,-17.52 -103.356,-29.109c-2.4,-4.437 -0.258,-11.113 6.324,-11.435c17.739,-0.869 92.66,7.82 128.004,-64.988c18.942,-39.021 13.243,-76.961 15.643,-81.049c4.433,-7.551 14.287,-3.931 14.408,3.269c0.214,12.833 -5.02,119.426 96.417,139.671c33.185,6.623 54.92,-2.866 53.767,11.422c-0.922,11.424 -18.067,4.597 -42.881,8.13c-5.213,0.742 -91.39,5.805 -105.361,107.81c-4.531,33.082 1.807,39.563 -8.933,41.092c-2.013,0.287 -8.048,-1.146 -8.218,-7.682c-0.097,-3.702 2.07,-41.434 -14.709,-77.429c-5.877,-12.608 -16.832,-23.11 -8.051,-27.063c6.825,-3.073 11.542,6.303 20.071,23.571c6.671,13.506 8.997,25.908 9.436,28.25c0.828,4.415 2.745,-7.313 6.197,-16.685c13.985,-37.962 38.516,-64.459 78.817,-78.04c4.467,-1.505 12.801,-2.426 5.82,-3.87c-10.333,-2.138 -45.754,-14.269 -68.26,-47.527c-20.888,-30.866 -20.775,-57.577 -22.686,-47.359c-1.538,8.222 -12.846,49.198 -45.737,73.758c-29.131,21.753 -43.905,19.046 -45.782,22.695Z" style="fill:#005487;fill-opacity:1;"/><path d="M85.049,60.948c-10.742,-10.411 -12.417,-19.506 -13.758,-19.523c-1.082,-0.014 -0.756,0.5 -1.942,3.115c-4.226,9.31 -14.167,20.221 -24.047,24.929c-6.018,2.868 2.324,2.324 12.439,12.131c12.915,12.521 12.354,23.18 14.754,17.51c4.455,-10.523 15.364,-4.471 11.96,3.903c-6.217,15.297 -5.527,15.532 -6.404,32.628c-0.389,7.584 -13.638,11.201 -13.74,-2.509c-0.45,-60.64 -52.649,-55.097 -58.089,-55.369c-4.574,-0.229 -6.89,-4.937 -6.054,-8.098c1.76,-6.658 8.778,-5.366 9.37,-5.37c48.126,-0.379 53.819,-30.35 54.934,-58.022c0.277,-6.889 10.079,-8.623 12.839,-2.58c1.142,2.501 -1.604,41.383 25.837,54.883c13.137,6.463 27.258,5.704 32.416,5.747c5.847,0.049 7.338,5.488 6.774,7.909c-2.804,12.032 -10.797,-0.553 -38.675,11.259c-11.124,4.713 -13.709,-7.366 -6.313,-10.93c5.726,-2.759 -1.975,-2.354 -12.302,-11.612Z" style="fill:#005487;fill-opacity:1;"/><path d="M121.804,276.259c13.667,-15.641 13.986,-25.691 15.08,-45.532c0.349,-6.331 11.173,-8.133 13.143,-0.869c2.319,8.55 -3.244,9.805 7.043,35.2c2.127,5.251 -2.469,9.05 -5.651,8.757c-5.836,-0.537 -6.166,-5.447 -7.027,-6.929c-1.681,-2.891 -4.302,10.918 -16.884,21.003c-9.78,7.839 -14.575,7.531 -11.004,9.396c16.676,8.707 21.114,17.568 26.059,27.617c1.451,2.949 1.79,-0.106 3.306,-3.015c13.077,-25.105 30.905,-23.652 24.028,-27.082c-8.276,-4.127 -3.478,-15.25 5.609,-11.202c15.796,7.036 19.613,5.034 33.448,5.898c2.738,0.171 7.083,3.505 5.373,8.979c-1.376,4.404 -7.89,4.465 -8.67,4.472c-40.411,0.378 -53.679,19.755 -55.423,57.161c-0.038,0.812 -0.361,7.738 -7.148,7.219c-11.087,-0.847 -2.478,-16.975 -11.922,-37.143c-18.906,-40.371 -56.916,-18.767 -58.683,-32.711c-2.121,-16.727 23.731,1.984 49.327,-21.22Z" style="fill:#005487;fill-opacity:1;"/></g></svg>