<?xml version="1.0" encoding="UTF-8" standalone="no"?><!DOCTYPE svg PUBLIC "-//W3C//DTD SVG 1.1//EN" "http://www.w3.org/Graphics/SVG/1.1/DTD/svg11.dtd"><svg width="100%" height="100%" viewBox="0 0 323 361" version="1.1" xmlns="http://www.w3.org/2000/svg" xmlns:xlink="http://www.w3.org/1999/xlink" xml:space="preserve" xmlns:serif="http://www.serif.com/" style="fill-rule:evenodd;clip-rule:evenodd;stroke-linejoin:round;stroke-miterlimit:2;"><g id="ferramentas"><path d="M316.943,356.501c-6.304,4.039 -6.779,3.488 -39.793,3.488c-245.568,-0 -256.019,-0.019 -260.155,0.048c-16.681,0.268 -16.812,-15.323 -16.828,-17.25c-0.229,-27.237 -0.436,-27.432 0.943,-29.332c2.482,-3.419 9.489,-3.495 9.6,4.02c0.388,26.139 -2.568,31.899 6.987,31.968c0.736,0.005 263.925,0.001 286.875,0c9.119,-0 7.687,-4.042 7.687,-23.53c0,-186.584 0.07,-186.869 -0.581,-187.159c-0.654,-0.291 -299.73,-0.291 -300.383,0c-0.652,0.291 -0.581,0.577 -0.581,144.972c0,2.476 1.707,14.502 -6.335,13.166c-4.975,-0.827 -4.212,-2.992 -4.212,-35.666c0,-161.9 -0.112,-161.957 0.903,-165.148c4.144,-13.039 21.433,-10.539 24.363,-10.539c20.171,0 26.259,-1.156 25.913,5.524c-0.398,7.673 -13.666,4.429 -35.05,5.037c-6.38,0.181 -5.664,3.195 -5.581,27.313c0.011,3.319 -0.538,4.583 2.765,4.619c20.965,0.226 271.687,0.019 295.312,-0c0.289,-0 3.394,-0.003 3.442,-1.115c0.09,-2.077 0.647,-14.99 -0.056,-25.988c-0.369,-5.765 -3.411,-4.843 -32.214,-4.843c-209.896,-0 -209.989,0.09 -211.67,-0.744c-2.746,-1.362 -6.015,-9.718 4.248,-9.803c12.362,-0.103 62.593,0.25 63.207,-0.22c1.88,-1.438 -3.017,-16.717 8.491,-18.97c4.209,-0.824 21.003,0.959 21.964,-1.22c0.187,-0.423 2.08,-4.713 1.207,-5.656c-8.519,-9.198 -19.649,-15.633 -14.772,-24.688c0.506,-0.94 16.146,-17.689 19.699,-19.07c11.215,-4.361 20.974,17.353 25.404,15.716c4.669,-1.725 4.695,-2.516 4.71,-2.961c0.477,-14.213 -2.752,-25.874 7.87,-28.272c0.937,-0.212 23.192,-0.325 24.67,0.035c11.696,2.854 6.56,18.896 7.653,28.265c0.173,1.482 5.52,3.784 6.825,2.518c10.743,-10.425 16.647,-20.016 25.381,-14.213c0.882,0.586 16.529,16.064 17.42,17.535c7.324,12.081 -16.71,22.329 -14.868,27.106c0.149,0.387 1.659,4.303 2.472,4.555c6.53,2.021 28.777,-5.967 28.917,11.007c0.018,2.133 -0.312,8.195 0.631,8.545c1.831,0.68 8.025,1.402 11.891,9.096c1.69,3.364 1.493,3.58 1.493,109.624c0,142.195 0.124,142.284 -0.985,145.428c-1.096,3.108 -4.399,6.334 -4.878,6.802l-45.064,-282.668c-1.351,-1.52 -1.39,-1.47 -4.713,-9.423c-3.863,-9.245 4.759,-13.462 14.752,-24.09c1.23,-1.308 -3.314,-5.092 -4.949,-6.727c-5.865,-5.865 -5.816,-5.822 -6.324,-6.325c-1.64,-1.624 -2.34,-0.214 -10.941,8.386c-7.891,7.89 -9.323,8.693 -21.871,3.259c-7.266,-3.147 -5.68,-10.329 -5.771,-26.592c-0.013,-2.378 -2.171,-1.735 -4.834,-1.735c-12.456,-0 -14.177,-0.821 -14.197,2.436c-0.113,18.552 3.789,23.86 -14.005,29.254c-9.15,2.774 -18.112,-12.805 -22.602,-15.618c-1.192,-0.747 -1.561,-0.366 -13.06,11.781c-1.221,1.289 0.069,2.089 9.07,11.096c8.471,8.477 7.396,10.087 2.917,21.21c-3.201,7.949 -12.256,5.72 -26.895,5.961c-2.234,0.037 -1.654,4.528 -1.582,7.35c0.05,1.955 2.422,1.481 14.262,1.481c30.692,-0 31.577,0.268 31.808,-1.473c4.118,-31.093 36.863,-33.572 50.803,-18.644c11.06,11.844 6.733,19.603 9.493,20.046c3.388,0.544 3.404,0.16 42.898,0.07c3.089,-0.007 2.125,-4.841 2.105,-7.125c-0.042,-5.073 -18.827,2.287 -26.361,-4.579l45.064,282.668l-106.895,-284.767c-6.841,6.082 -7.422,13.514 -5.331,13.791c0.106,0.014 35.655,0.032 35.882,-0.01c5.546,-1.036 -8.129,-26.615 -27.342,-16.079c-1.778,0.975 -1.662,1.062 -3.209,2.298l106.895,284.767Z" style="fill:#005487;fill-opacity:1;"/><path d="M288.056,256.031c-5.658,5.732 -6.654,4.954 -40.438,4.954c-204.342,0 -204.388,0.087 -206.635,-0.71c-10.552,-3.74 -8.868,-12.076 -8.868,-34.91c-0,-51.546 -0.212,-51.737 1.37,-54.683c4.505,-8.384 7.462,-7.16 45.383,-7.16c118.396,-0 118.605,-0.119 120.047,0.94c3.617,2.657 3.132,9.551 -4.031,9.601c-3.78,0.026 -8.244,-0.974 -8.249,2.084c-0.05,31.04 -0.192,31.021 -0.092,33.717c0.198,5.328 11.458,-16.4 21.648,-14.458c3.272,0.624 3.78,0.721 30.535,28.304c2.808,2.895 3.043,-0.22 13.324,-10.083c8.192,-7.859 13.138,-1.663 25.676,11.161c1.369,1.4 1.297,2.798 2.499,1.538c0.256,-0.268 0.011,-16.162 0.085,-23.461c0.021,-2.091 0.992,-3.185 -1.05,-3.04c-0.344,0.024 -3.167,1.046 -8.425,0.742c-12.155,-0.703 -22.487,-10.316 -24.037,-23c-0.295,-2.411 0.46,-3.485 -1.992,-3.498c-21.354,-0.113 -30.197,1.527 -29.429,-5.651c0.624,-5.829 3.18,-4.897 30.836,-4.897c35.898,-0 38.59,-1.216 43.269,7.163c2.275,4.073 1.139,4.441 1.375,75.071c0.019,5.615 -0.095,5.797 -2.8,10.275l-192.673,-39.359c10.116,15.229 9.034,21.045 8.719,32.604c-0.036,1.336 0.853,1.161 47.891,1.161c23.12,-0 23.812,0.247 24.068,-1.139c0.046,-0.247 0.025,-73.768 0.012,-73.876c-0.192,-1.598 -1.037,-1.353 -31.814,-1.353c-99.747,-0 -100.063,-0.119 -100.95,0.931c-1.079,1.277 -0.438,2.511 -0.701,24.333c-0.044,3.644 9.895,-4.392 27.752,0.287c16.486,4.32 24.883,16.863 25.023,17.052l192.673,39.359l-29.633,-33.87c-9.929,9.907 -15.669,18.363 -23.951,12.085c-2.834,-2.148 -26.631,-27.716 -28.4,-27.356c-0.068,0.014 -18.983,17.983 -19.389,19.917c-0.021,0.1 -0.193,22.373 0.093,23.01c0.271,0.604 0.508,0.637 85.451,0.621c0.171,-0 7.025,0.794 7.897,-1.808c0.233,-0.694 0.564,-5.897 -0.391,-6.903c-1.559,-1.644 -18.654,-19.662 -20.159,-19.889c-0.095,-0.014 -0.085,0.024 -1.151,0.323l29.633,33.87l-208.049,-40.163c-2.332,-1.654 -17.214,-12.213 -35.479,-4.304c-2.573,1.114 -1.867,3.164 -1.867,10.285c0,26.748 -0.495,28.182 2.496,28.539c1.753,0.209 42.655,0.061 46.364,0.048c3.93,-0.014 2.284,-11.894 0.864,-16.682c-2.752,-9.282 -11.08,-16.727 -12.378,-17.887l208.049,40.163l-27.476,-71.692c1.066,1.095 9.114,9.364 18.608,4.33c1.893,-1.004 1.592,-13.029 0.105,-13.974c-1.58,-1.004 -21.548,-1.003 -21.951,-0.018c-1.057,2.585 2.815,8.965 3.238,9.662l27.476,71.692Z" style="fill:#005487;fill-opacity:1;"/><path d="M34.965,320.627c-3.294,-3.428 -2.859,-5.461 -2.85,-8.777c0.046,-17.497 -1.15,-22.737 4.691,-25.778c2.373,-1.235 2.542,-1.091 94.094,-1.091c25.028,0 30.934,-1.906 30.939,12.104c0.007,16.682 1.036,22.157 -5.045,25.059c-2.052,0.979 -2.175,0.862 -77.223,0.862c-40.866,-0 -41.303,0.37 -44.607,-2.379l7.697,-11.589c0.167,2.379 -0.587,3.409 1.755,3.421c8.487,0.043 104.306,0.526 106.092,-0.115c1.274,-0.457 1.185,-16.22 0.075,-16.659c-0.477,-0.188 -106.804,-0.409 -107.481,0.115c-0.596,0.462 -0.441,3.351 -0.441,13.237l-7.697,11.589Z" style="fill:#005487;fill-opacity:1;"/><path d="M288.845,286.163c3.574,3.87 2.756,9.275 -4.664,9.364c-0.042,0.001 -100.822,0 -101.25,0c-0.728,-0 -7.448,-0.004 -6.735,-6.128c0.607,-5.217 3.016,-4.419 36.969,-4.419l42.187,-0c30.444,-0 30.537,-0.197 33.492,1.183Z" style="fill:#005487;fill-opacity:1;"/><path d="M288.829,313.606c5.054,5.446 -0.231,9.307 -3.251,9.367c-4.625,0.092 -93.142,0.038 -101.242,0.033c-0.604,-0 -7.034,0.857 -8.052,-4.054c-1.639,-7.905 7.731,-6.493 24.224,-6.493l50.625,0c34.721,0 34.817,-0.181 37.696,1.148Z" style="fill:#005487;fill-opacity:1;"/><path d="M91.865,69.699c-1.103,-2.224 -1.713,-2.216 -0.954,-4.621c1.398,-4.428 16.486,-10.449 22.769,-14.409c0.079,-0.05 0.813,-0.512 -0.318,-1.125c-1.572,-0.852 -16.956,-9.195 -19.617,-10.705c-5.026,-2.852 -3.221,-7.325 -1.459,-8.873c3.509,-3.082 8.804,0.856 8.925,0.922c28.496,15.579 28.448,15.889 28.999,17.284c2.233,5.649 -5.703,8.496 -6.174,8.752c-26.022,14.141 -26.852,16.808 -32.172,12.776Z" style="fill:#005487;fill-opacity:1;"/><path d="M1.82,46.377c6.631,-4.572 27.656,-15.586 30.101,-16.867c4.744,-2.485 9.331,1.398 7.865,6.11c-1.291,4.152 -22.065,12.934 -22.588,14.112c-0.758,1.71 0.623,1.152 3.863,2.934c17.749,9.767 20.157,10.471 19.255,14.515c-2.027,9.086 -13.176,0.867 -15.697,-0.529c-22.45,-12.432 -27.648,-13.064 -22.8,-20.275Z" style="fill:#005487;fill-opacity:1;"/><path d="M77.824,25.323c2.651,4.028 1.652,4.686 -8.193,28.439c-7.671,18.509 -8.965,24.987 -15.211,22.204c-5.567,-2.481 -2.35,-7.366 6.968,-29.856c8.174,-19.728 8.955,-25.513 16.436,-20.787Z" style="fill:#005487;fill-opacity:1;"/><path d="M276.095,111.488c-0.714,11.77 -16.891,3.211 -9.382,-3.418c1.813,-1.6 4.547,-1.338 5.579,-1.058c2.589,0.701 3.659,4.029 3.803,4.476Z" style="fill:#005487;fill-opacity:1;"/><path d="M254.311,108.899c5.087,11.613 -13.191,10.039 -9.885,1.274c1.131,-2.998 4.168,-3.309 4.622,-3.355c2.987,-0.306 2.932,0.169 5.263,2.082Z" style="fill:#005487;fill-opacity:1;"/><path d="M294.987,115.986c-8.922,6.21 -13.275,-9.419 -3.772,-9.185c4.73,0.117 7.999,4.678 3.772,9.185Z" style="fill:#005487;fill-opacity:1;"/></g></svg>