<?xml version="1.0" encoding="UTF-8" standalone="no"?><!DOCTYPE svg PUBLIC "-//W3C//DTD SVG 1.1//EN" "http://www.w3.org/Graphics/SVG/1.1/DTD/svg11.dtd"><svg width="100%" height="100%" viewBox="0 0 399 304" version="1.1" xmlns="http://www.w3.org/2000/svg" xmlns:xlink="http://www.w3.org/1999/xlink" xml:space="preserve" xmlns:serif="http://www.serif.com/" style="fill-rule:evenodd;clip-rule:evenodd;stroke-linejoin:round;stroke-miterlimit:2;"><g id="frontend"><path d="M12.788,298.007c-1.066,-0.785 -7.137,-5.255 -10.311,-12.939c-2.23,-5.398 -2.924,-7.079 -2.206,-72.97c0.115,-10.514 9.181,-7.684 10.86,-4.447c1.628,3.136 0.493,44.179 0.807,65.878c0.185,12.735 10.328,17.689 15.948,18.321c1.926,0.217 341.328,0.119 342.035,0.052c20.336,-1.932 16.714,-26.356 16.714,-29.265l0,-213.035c0,-16.754 2.767,-33.319 -14.314,-37.504c-3.454,-0.846 -307.588,-0.137 -327.378,-0.39c-7.382,-0.094 -8.169,-8.845 -3.099,-11.08c1.437,-0.634 1.492,-0.566 279.896,-0.566c53.578,-0 56.965,-1.268 66.721,7.713c11.17,10.282 9.836,22.788 9.836,26.277c0,19.033 0.002,237.637 -0,237.915c-0.024,3.033 -0.197,25.115 -22.226,30.714c-4.161,1.058 -4.172,0.943 -299.243,0.943c-53.52,-0 -54.316,0.83 -64.04,-5.617Z" style="fill:#005487;fill-opacity:1;"/><path d="M305.817,75.754c-3.356,2.724 -3.805,2.311 -33.059,2.311c-259.933,-0 -260.02,-0.041 -260.429,0.34c-1.279,1.19 0.648,102.538 -1.044,105.593c-2.748,4.961 -10.965,5.035 -11.014,-3.775c-0.042,-7.611 0.078,-126.564 -0.054,-149.281c-0.115,-19.924 16.744,-31.838 19.943,-21.021c2.129,7.199 -8.024,5.61 -8.226,21.018c-0.036,2.734 -0.413,31.377 -0.044,34.177c0.195,1.479 1.028,1.286 53.275,1.286c236.799,0 236.868,-0.08 238.52,0.662c2.229,1.002 2.906,3.247 3.015,3.607c0.779,2.582 0.065,2.544 -0.883,5.082Z" style="fill:#005487;fill-opacity:1;"/><path d="M243.638,196.928c-0.319,-0.373 -2.445,-2.86 -1.566,-5.933c0.845,-2.952 1.463,-2.639 24.02,-29.935c5.339,-6.46 9.32,-10.149 8.071,-11.834c-0.269,-0.362 -15.178,-18.45 -16.5,-20.054c-12.555,-15.232 -20.545,-21.814 -12.78,-26.482c5.147,-3.094 8.218,2.772 26.692,25.127c16.241,19.654 19.814,21.064 14.066,28.028c-10.554,12.786 -10.591,12.647 -21.112,25.421c-12.108,14.702 -14.709,20.305 -20.891,15.661Z" style="fill:#005487;fill-opacity:1;"/><path d="M147.151,103.623c8.418,-5.129 9.96,3.435 9.701,5.059c-0.65,4.074 -32.292,39.378 -32.662,41.199c-0.258,1.27 0.121,1.259 9.766,12.928c21.412,25.902 26.263,29.352 21.118,34.213c-5.686,5.373 -11.525,-4.386 -20.255,-14.979c-22.732,-27.583 -25.67,-29.221 -24.1,-33.815c1.104,-3.231 33.44,-41.1 36.432,-44.604Z" style="fill:#005487;fill-opacity:1;"/><path d="M216.23,102.853c2.947,-1.057 3.136,-1.7 5.817,-0.074c5.872,3.563 0.758,11.152 0.714,11.244c-0.728,1.504 -37.649,79.984 -38.087,80.855c-3.144,6.266 -10.786,3.412 -11.133,-1.474c-0.23,-3.238 0.359,-3.22 16.389,-37.115c24.303,-51.388 24.211,-51.569 26.301,-53.436Z" style="fill:#005487;fill-opacity:1;"/><path d="M242.101,262.345c1.279,-1.162 1.132,-1.298 2.743,-1.777c2.956,-0.878 52.863,-0.348 57.459,-0.299c11.347,0.121 9.177,10.669 2.321,11.586c-3.841,0.514 -51.491,0.114 -55.968,0.077c-10.549,-0.088 -8.261,-7.207 -6.555,-9.586Z" style="fill:#005487;fill-opacity:1;"/><path d="M209.451,233.482c1.584,-1.095 1.515,-1.258 3.417,-1.43c2.93,-0.265 50.809,-0.06 55.227,-0.041c10.633,0.045 8.119,10.876 2.28,11.585c-4.441,0.539 -4.446,0.173 -55.925,0.076c-6.588,-0.012 -9.441,-5.39 -4.998,-10.19Z" style="fill:#005487;fill-opacity:1;"/><path d="M144.14,242.07c-3.021,1.808 -3.803,2.276 -43.985,1.603c-11.089,-0.186 -7.994,-11.507 -1.576,-11.635c3.424,-0.069 39.45,-0.791 42.81,0.158c7.952,2.246 3.213,9.197 2.751,9.875Z" style="fill:#005487;fill-opacity:1;"/><path d="M132.147,271.6c-0.482,-0.294 -4.155,-2.538 -3.947,-5.849c0.028,-0.448 0.212,-3.361 3.02,-4.731c2.91,-1.42 3.04,-1.228 40.464,-0.748c9.003,0.116 7.778,8.6 4.461,10.618c-3.472,2.112 -43.199,0.821 -43.997,0.711Z" style="fill:#005487;fill-opacity:1;"/><path d="M42.182,234.153c1.261,-0.937 1.399,-2.118 5.878,-2.142c27.217,-0.145 28.716,-0.283 30.061,4.266c2.182,7.377 -6.67,7.395 -7.513,7.396c-26.186,0.052 -27.064,0.389 -28.833,-2.765c-2.124,-3.787 0.207,-6.303 0.406,-6.755Z" style="fill:#005487;"/><path d="M112.174,262.318c3.193,4.416 1.353,9.548 -5.801,9.611c-25.695,0.226 -25.874,0.111 -27.746,-1.086c-3.321,-2.125 -4.241,-10.438 4.42,-10.571c0.33,-0.005 23.147,-0.004 23.325,-0.002c4.227,0.034 4.658,1.023 5.801,2.049Z" style="fill:#005487;"/><path d="M125.399,44.365c-11.26,16.118 -29.425,-6.511 -14.281,-14.83c8.516,-4.678 19.865,4.636 14.281,14.83Z" style="fill:#005487;fill-opacity:1;"/><path d="M76.539,47.658c-10.508,-8.941 -0.489,-21.052 8.097,-19.23c17.295,3.668 6.368,29.208 -8.097,19.23Z" style="fill:#005487;fill-opacity:1;"/><path d="M42.25,31.33c10.329,-8.976 21.479,3.346 17.277,11.964c-7.399,15.173 -29.077,0.681 -17.277,-11.964Z" style="fill:#005487;fill-opacity:1;"/><path d="M221.951,270.814c-1.472,0.621 -3.74,1.578 -19.945,1.113c-9.995,-0.287 -8.421,-11.382 -0.778,-11.637c20.174,-0.673 21.239,1.075 22.168,2.6c2.204,3.617 -1.029,7.432 -1.445,7.924Z" style="fill:#005487;fill-opacity:1;"/><path d="M326.791,270.054c-1.013,-1.715 -1.364,-1.562 -1.489,-3.504c-0.456,-7.107 6.716,-6.476 22.096,-6.278c9.074,0.116 10.376,11.653 -0.778,11.66c-16.256,0.01 -16.505,0.426 -19.83,-1.877Z" style="fill:#005487;fill-opacity:1;"/><path d="M164.251,233.48c1.297,-0.623 1.113,-1.414 5.099,-1.468c0.203,-0.003 14.215,-0.003 15.565,0.014c5.384,0.069 7.61,6.095 4.588,9.564c-1.105,1.268 -2.27,2.606 -20.918,2.074c-1.9,-0.054 -10.146,-2.235 -4.334,-10.183Z" style="fill:#005487;fill-opacity:1;"/></g></svg>