<?xml version="1.0" encoding="UTF-8" standalone="no"?><!DOCTYPE svg PUBLIC "-//W3C//DTD SVG 1.1//EN" "http://www.w3.org/Graphics/SVG/1.1/DTD/svg11.dtd"><svg width="100%" height="100%" viewBox="0 0 402 356" version="1.1" xmlns="http://www.w3.org/2000/svg" xmlns:xlink="http://www.w3.org/1999/xlink" xml:space="preserve" xmlns:serif="http://www.serif.com/" style="fill-rule:evenodd;clip-rule:evenodd;stroke-linejoin:round;stroke-miterlimit:2;"><g id="grafico"><path d="M7.447,286.908c-1.205,-1.378 -7.469,-8.052 -7.447,-20.093c0.179,-98.006 -0.04,-232.26 0.065,-237.518c0.263,-13.098 9.217,-28.778 29.984,-29.291c0.344,-0.009 340.173,-0.008 341.057,-0c15.845,0.146 30.126,11.288 29.996,30.944c-0.001,0.215 0.006,186.829 -0.004,187.389c-0.132,7.38 -7.876,6.234 -9.089,2.331c-0.785,-2.528 -0.162,-170.492 -0.355,-188.897c-0.023,-2.15 -0.195,-18.587 -15.691,-21.815c-2.963,-0.617 -2.942,-0.551 -318.797,-0.551c-26.252,-0 -40.704,-2.479 -46.504,13.444c-1.309,3.593 -1.16,3.709 -1.16,156.032c-0,92.62 -0.323,92.942 2.336,97.867c6.723,12.449 20.354,10.79 22.317,10.792c26.825,0.029 268.881,0.287 335.313,-0c37.55,-0.162 13.618,-50.659 26.246,-52.291c7.107,-0.919 5.39,10.536 5.39,11.844c0,16.977 3.283,38.135 -17.768,47.43c-6.284,2.775 -6.517,2.422 -81.259,2.422c-50.352,0 -51.205,-0.171 -51.186,1.102c0.002,0.164 15.067,34.482 19.578,44.543c2.193,4.892 3.822,3.071 16.798,3.337c4.407,0.091 6.435,5.859 2.34,8.593c-1.239,0.827 -1.388,0.735 -140.393,0.735c-36.932,-0 -38.764,0.677 -39.74,-3.725c-1.689,-7.617 11.671,-5.449 18.385,-5.665c1.646,-0.053 2.1,-1.431 4.036,-5.932c1.986,-4.619 12.519,-28.549 13.611,-31.03c3.238,-7.356 6.428,-11.971 2.899,-11.969c-26.029,0.003 -52.059,0.007 -78.088,0.01c-46.713,-0 -52.479,1.64 -62.869,-10.04l241.62,30.688c-6.76,-15.414 -8.355,-20.47 -10.24,-20.617c-0.7,-0.054 -75.442,-0.047 -76.498,-0c-1.904,0.085 -4.106,6.709 -10.238,20.619c-11.673,26.479 -13.511,27.691 -11.152,28.283c0.096,0.024 119.032,0.015 119.278,-0.001c2.428,-0.151 0.574,-1.686 -11.15,-28.284l-241.62,-30.688Z" style="fill:#005487;fill-opacity:1;"/><path d="M229.369,160.367c2.676,4.77 1.286,5.162 1.466,55.496c0.001,0.214 0.008,2.23 1.408,2.274c11.111,0.346 12.032,0.016 12.037,-2.274c0.074,-37.445 -0.921,-39.581 3.484,-40.509c1.807,-0.381 2.815,-0.593 23.079,-0.257c7.381,0.122 6.073,3.546 6.073,25.976c0,13.399 -0.45,17 1.354,17.061c11.338,0.385 11.598,0.119 11.954,-0.77c0.665,-1.665 -0.655,-67.243 0.731,-70.342c1.109,-2.479 4.131,-2.582 4.549,-2.597c24.927,-0.853 25.802,0.66 26.883,2.53c1.722,2.978 -0.59,70.024 1.277,71.002c1.874,0.981 20.495,-2.678 18.305,6.042c-1.085,4.32 -2.827,3.654 -39.893,3.654c-122.995,0 -123.288,0.15 -124.858,-1.178c-2.033,-1.719 -1.778,-2.262 -1.778,-68.96c0,-31.222 -1.139,-37.521 5.76,-35.876c2.403,0.573 3.669,2.747 3.706,4.617c0.225,11.271 -0.365,89.982 0.338,91.345c0.464,0.899 12.189,0.834 12.611,0.031c1.076,-2.042 -0.505,-53.247 0.881,-55.907c1,-1.92 1.974,-3.79 26.918,-2.778c2.055,0.083 1.905,0.424 3.715,1.42l71.921,-6.567c-2.026,1.83 -1.362,2.234 -1.362,11.934c0,51.489 -0.108,51.832 0.699,52.233c0.186,0.093 12.033,0.832 12.719,-0.57c0.035,-0.072 0.919,-62.741 -0.478,-63.354c-0.755,-0.331 -0.726,-0.156 -11.579,-0.243l-71.921,6.567l-8.245,8.824c-0.822,-0.484 -1.66,-0.977 -11.895,-0.749c-2.341,0.052 -1.548,7.47 -1.548,7.975c-0,40.605 -0.264,41.68 1.544,41.725c10.378,0.262 12.018,0.297 12.036,-2.28c0.026,-3.734 0.291,-42.068 -0.138,-46.672l8.245,-8.824l37.84,56.996c0.234,-2.41 0.176,-2.369 0.146,-30.26c-0.004,-3.522 -3.065,-2.588 -7.193,-2.577c-4.292,0.012 -6.365,-1.682 -6.371,2.577c-0.038,30.107 -0.099,30.957 1.461,31.037c9.793,0.501 11.131,-0.289 11.957,-0.777l-37.84,-56.996Z" style="fill:#005487;fill-opacity:1;"/><path d="M338.029,32.172c0.461,0.407 4.75,4.197 0.87,7.633c-1.582,1.402 -1.905,1.24 -107.501,1.24c-189.452,-0 -189.671,-0.059 -189.965,0.49c-1.219,2.283 0.684,201.752 -1.011,204.569c-1.774,2.95 -8.743,4.746 -8.813,-3.94c-0.096,-12.002 -0.009,-186 -0.001,-202.174c0.005,-10.245 4.227,-8.451 16.518,-8.451c287.221,0 287.204,-0.075 289.903,0.632Z" style="fill:#005487;fill-opacity:1;"/><path d="M361.672,33.006c0.494,-0.35 5.347,-3.793 7.437,1.392c0.582,1.445 0.519,1.491 0.519,183.112c-0,27.565 1.159,30.921 -5.915,31.117c-0.179,0.005 -296.996,0.007 -297.505,-0.001c-7.081,-0.114 -6.789,-6.73 -3.234,-8.825c2.653,-1.564 295.472,0.171 296.637,-0.915c0.582,-0.543 0.518,-0.713 0.518,-147.117c-0,-56.105 -0.224,-56.396 1.544,-58.761Z" style="fill:#005487;fill-opacity:1;"/><path d="M71.546,77.376c1.392,-1.186 10.783,-9.19 20.199,-10.702c40.066,-6.433 58.468,40.884 34.886,64.172c-35.438,34.997 -90.349,-13.744 -55.085,-53.471l21.385,26.337c1.549,-2.287 1.163,-2.489 1.163,-16.055c0,-4.655 0.716,-11.854 -1.577,-11.402c-21.058,4.15 -28.226,30.546 -17.862,44.04c1.203,1.566 1.386,-0.377 18.276,-16.583l-21.385,-26.337l47.686,6.571c-9.656,-8.472 -15.695,-8.598 -15.66,-6.135c0.292,20.288 -0.422,23.887 0.684,25.267c4.604,5.741 15.742,15.912 17.179,17.224c2.088,1.906 5.665,-7.733 6.068,-12.141c1.318,-14.428 -5.632,-21.066 -8.272,-24.215l-47.686,-6.571l35.415,41.849c-6.425,-6.462 -7.792,-8.337 -9.407,-6.783c-1.202,1.157 -11.466,11.032 -14.721,14.775c-1.993,2.292 16.009,10.924 30.856,2.053c2.556,-1.527 0.605,-2.721 -6.728,-10.046l-35.415,-41.849Z" style="fill:#005487;fill-opacity:1;"/><path d="M283.591,134.109c-14.972,14.754 -15.305,15.009 -14.845,16.738c6.926,26.004 -29.796,27.887 -28.12,3.394c0.134,-1.963 -0.65,-1.796 -18.485,-13.65c-2.806,-1.865 -11.422,5.663 -20.079,-2.257c-15.352,-14.046 8.423,-36.589 21.66,-20.051c5.805,7.253 0.239,12.248 4.619,15.041c13.205,8.418 16.827,11.926 18.679,11.058c4.074,-1.912 5.529,-3.669 13.133,-1.629c2.561,0.687 2.277,-0.755 23.582,-22.474c2.689,-2.742 2.453,-3.085 1.538,-6.205c-6.55,-22.335 30.27,-26.882 28.739,-2.623c-0.347,5.493 -6.551,14.194 -16.818,12.836c-2.598,-0.344 -2.912,-1.334 -4.768,0.565c-6.057,6.201 -8.147,8.5 -8.836,9.257l-32.079,26.285c3.505,1.699 3.917,2.74 6.925,0.305c7.193,-5.822 -5.695,-14.224 -8.272,-5.693c-0.856,2.834 -0.257,2.835 1.347,5.388l32.079,-26.285l12.265,-20.554c3.536,1.503 3.927,2.625 6.828,0.136c7.565,-6.49 -7.468,-14.434 -8.52,-4.638c-0.271,2.524 0.269,2.419 1.693,4.502l-12.265,20.554l-68.205,-4.114c1.346,-1.764 2.124,-1.519 1.76,-3.663c-1.429,-8.411 -14.223,-2.548 -9.467,3.984c2.835,3.895 3.966,2.645 7.707,-0.321l68.205,4.114Z" style="fill:#005487;fill-opacity:1;"/><path d="M69.597,167.785c5.414,-0.394 42.55,-0.114 42.595,-0.11c2.601,0.205 5.792,3.241 3.467,7.192c-1.775,3.016 -2.741,2.416 -43.696,2.09c-6.77,-0.054 -8.124,-6.481 -2.365,-9.172Z" style="fill:#005487;fill-opacity:1;"/><path d="M109.43,219.519c3.273,4.523 1.069,8.134 -4.596,8.173c-34.973,0.239 -35.396,0.7 -37.482,-1.457c-0.703,-0.727 -4.386,-7.966 5.429,-8.014c0.082,-0 21.752,-0 24.655,-0c7.026,-0 9.012,-0.471 11.993,1.298Z" style="fill:#005487;fill-opacity:1;"/><path d="M107.572,201.489c-0.279,-0.282 -2.453,-2.485 -2.003,-4.539c0.088,-0.402 0.662,-3.021 3.448,-3.822c3.083,-0.886 29.419,-0.286 31.977,-0.227c7.949,0.181 6.947,9.602 -0.002,9.43c-17.822,-0.44 -28.524,0.828 -33.419,-0.843Z" style="fill:#005487;fill-opacity:1;"/><path d="M93.651,194.123c4.375,5.188 -0.439,8.128 -3.601,8.148c-18.022,0.115 -24.94,0.935 -23.949,-5.324c0.795,-5.02 6.581,-4.091 20.651,-4.056c3.499,0.009 4.476,-0.367 6.899,1.231Z" style="fill:#005487;fill-opacity:1;"/><path d="M119.999,219.54c2.569,-1.133 2.488,-1.323 3.73,-1.362c20.777,-0.651 21.526,0.945 22.288,2.57c3.222,6.864 -5.899,6.901 -6.667,6.904c-12.15,0.049 -25.101,1.731 -19.352,-8.112Z" style="fill:#005487;"/><path d="M145.546,169.323c5.496,10.626 -16.333,8.25 -18.401,6.153c-2.192,-2.223 -2.065,-7.783 3.992,-7.91c12.596,-0.264 12.679,0.308 14.409,1.758Z" style="fill:#005487;"/></g></svg>