<?xml version="1.0" encoding="UTF-8" standalone="no"?><!DOCTYPE svg PUBLIC "-//W3C//DTD SVG 1.1//EN" "http://www.w3.org/Graphics/SVG/1.1/DTD/svg11.dtd"><svg width="100%" height="100%" viewBox="0 0 292 362" version="1.1" xmlns="http://www.w3.org/2000/svg" xmlns:xlink="http://www.w3.org/1999/xlink" xml:space="preserve" xmlns:serif="http://www.serif.com/" style="fill-rule:evenodd;clip-rule:evenodd;stroke-linejoin:round;stroke-miterlimit:2;"><g id="Perfil"><path d="M39.681,242.905c13.842,-15.235 37.119,-31.474 63.269,-39.56c85.284,-26.37 175.102,31.334 186.828,119.738c1.472,11.098 5.408,32.834 -12.656,37.746c-2.804,0.763 -2.814,0.68 -232.139,0.68c-26.748,-0 -36.524,1.844 -42.83,-10.335c-5.934,-11.46 2.231,-44.183 2.67,-45.737c9.17,-32.462 23.334,-49.762 34.858,-62.532Z" style="fill:#005487;fill-opacity:1;"/><path d="M205.584,27.606c55.829,68.602 -18.071,160.799 -96.936,122.238c-40.86,-19.978 -60.578,-83.039 -20.389,-125.178c24.907,-26.115 77.184,-40.201 117.324,2.94Z" style="fill:#005487;fill-opacity:1;"/></g></svg>